<?xml version="1.0" encoding="UTF-8" standalone="no"?>
<!-- Created with Inkscape (http://www.inkscape.org/) -->

<svg
   width="41.867867mm"
   height="40.391159mm"
   viewBox="0 0 41.867867 40.391159"
   version="1.1"
   id="svg5"
   xml:space="preserve"
   xmlns:inkscape="http://www.inkscape.org/namespaces/inkscape"
   xmlns:sodipodi="http://sodipodi.sourceforge.net/DTD/sodipodi-0.dtd"
   xmlns="http://www.w3.org/2000/svg"
   xmlns:svg="http://www.w3.org/2000/svg"><sodipodi:namedview
     id="namedview7"
     pagecolor="#ffffff"
     bordercolor="#000000"
     borderopacity="0.25"
     inkscape:showpageshadow="2"
     inkscape:pageopacity="0.0"
     inkscape:pagecheckerboard="0"
     inkscape:deskcolor="#d1d1d1"
     inkscape:document-units="mm"
     showgrid="false" /><defs
     id="defs2" /><g
     inkscape:label="Layer 1"
     inkscape:groupmode="layer"
     id="layer1"
     transform="translate(-85.037897,-113.76283)"><rect
       style="fill:#00488d;fill-opacity:1;stroke:none;stroke-width:0.277"
       id="rect234"
       width="41.867867"
       height="40.391159"
       x="85.037895"
       y="113.76283"
       rx="8" /><g
       style="fill:#ffffff"
       id="g2897"
       transform="matrix(0.02880278,0,0,0.02880278,91.620957,119.62722)"
       inkscape:label="procureFlow"><path
         d="M 488.00052,999.898 C 218.97566,999.898 0.09894878,781.022 0.09894878,512 0.09894878,242.978 218.97566,24.102 488.00052,24.102 c 156.6245,0 304.81098,76.03 396.38727,203.364 a 8.0160258,8.016 0 0 1 -1.828,11.17 c -3.61002,2.562 -8.59203,1.766 -11.17003,-1.828 C 782.81347,113.63 639.48501,40.1 488.00052,40.1 227.78569,40.098 16.097,251.788 16.097,512 c 0,260.21 211.69067,471.902 471.90352,471.902 260.21083,0 471.90351,-211.692 471.90351,-471.902 a 7.9920257,7.992 0 0 1 7.99804,-7.998 7.9940258,7.994 0 0 1 7.99803,7.998 c 0,269.022 -218.87671,487.898 -487.89958,487.898 z"
         fill=""
         id="path2864"
         style="fill:#ffffff;stroke-width:66.9727;stroke-dasharray:none" /><path
         d="m 1015.8921,567.988 a 7.9760257,7.976 0 0 1 -5.6559,-2.344 l -47.99015,-47.99 a 7.9974033,7.9973777 0 1 1 11.31002,-11.31 l 47.99013,47.992 a 7.9940258,7.994 0 0 1 0,11.308 7.9600257,7.96 0 0 1 -5.6541,2.344 z"
         fill=""
         id="path2866"
         style="fill:#ffffff;stroke-width:1.00001" /><path
         d="m 919.91191,567.988 a 7.9940258,7.994 0 0 1 -5.65602,-13.652 l 47.99016,-47.992 a 7.9974033,7.9973777 0 1 1 11.31002,11.31 l -47.99014,47.99 a 7.9600257,7.96 0 0 1 -5.65402,2.344 z M 727.95129,735.954 H 280.04186 c -4.42203,0 -8.00003,-3.578 -8.00003,-7.998 V 376.028 a 7.9940258,7.994 0 0 1 8.00003,-7.998 H 727.9493 c 4.42201,0 8.00002,3.578 8.00002,7.998 v 351.928 a 7.9940258,7.994 0 0 1 -7.99803,7.998 z M 288.03988,719.958 H 719.95127 V 384.026 H 288.03988 Z"
         fill=""
         id="path2868"
         style="fill:#ffffff;stroke-width:1.00001" /><path
         d="M 727.95129,384.026 H 280.04186 a 8.0020257,8.002 0 0 1 -7.39003,-4.936 8.0180258,8.018 0 0 1 1.73401,-8.716 l 63.98819,-63.986 a 7.9920257,7.992 0 0 1 5.65602,-2.344 h 319.93503 c 2.12401,0 4.15401,0.844 5.65403,2.344 l 63.9882,63.986 a 8.0200258,8.02 0 0 1 1.73401,8.716 8.0020257,8.002 0 0 1 -7.39003,4.936 z M 299.3519,368.03 h 409.29133 l -47.99016,-47.99 h -313.313 z"
         fill=""
         id="path2870"
         style="fill:#ffffff;stroke-width:1.00001" /><path
         d="M 456.00642,384.026 A 8.0080258,8.008 0 0 1 448.8504,372.45 l 31.99411,-63.988 c 1.99998,-3.936 6.78,-5.546 10.73202,-3.578 a 8.0060258,8.006 0 0 1 3.57801,10.732 l -31.99409,63.986 a 8.0140258,8.014 0 0 1 -7.15403,4.424 z m 95.98031,0 a 8.0160258,8.016 0 0 1 -7.15403,-4.42 L 512.8386,315.62 a 8.0060258,8.006 0 0 1 3.57801,-10.732 7.9920257,7.992 0 0 1 10.73203,3.578 l 31.99211,63.988 a 8.0060258,8.006 0 0 1 -3.57802,10.732 7.9920257,7.992 0 0 1 -3.576,0.84 z"
         fill=""
         id="path2872"
         style="fill:#ffffff;stroke-width:1.00001" /><path
         d="m 456.00642,448.014 a 7.9940258,7.994 0 0 1 -7.99804,-8 v -63.988 c 0,-4.42 3.57803,-7.998 7.99804,-7.998 4.42001,0 7.99803,3.578 7.99803,7.998 v 63.988 c 0,4.422 -3.57802,8 -7.99803,8 z"
         fill=""
         id="path2874"
         style="fill:#ffffff;stroke-width:1.00001" /><path
         d="m 551.98673,448.014 h -95.98031 c -4.42001,0 -7.99804,-3.578 -7.99804,-8 0,-4.422 3.57803,-7.998 7.99804,-7.998 h 95.98031 c 4.42001,0 7.99801,3.578 7.99801,7.998 0,4.42 -3.578,8 -7.99801,8 z"
         fill=""
         id="path2876"
         style="fill:#ffffff;stroke-width:1.00001" /><path
         d="m 551.98673,448.014 a 7.9940258,7.994 0 0 1 -7.99803,-8 v -63.988 a 7.9940258,7.994 0 0 1 7.99803,-7.998 7.9940258,7.994 0 0 1 7.99801,7.998 v 63.988 c 0,4.422 -3.578,8 -7.99801,8 z m -95.98031,7.998 a 7.9940258,7.994 0 0 1 -7.99804,-7.998 v -8 c 0,-4.42 3.57803,-7.998 7.99804,-7.998 4.42001,0 7.99803,3.578 7.99803,7.998 v 8 a 7.9940258,7.994 0 0 1 -7.99803,7.998 z m 31.9941,0 c -4.422,0 -8.00003,-3.578 -8.00003,-7.998 v -8 a 7.9940258,7.994 0 0 1 8.00003,-7.998 7.9940258,7.994 0 0 1 7.99804,7.998 v 8 a 7.9940258,7.994 0 0 1 -7.99804,7.998 z m 31.9921,0 a 7.9940258,7.994 0 0 1 -7.99803,-7.998 v -8 a 7.9940258,7.994 0 0 1 7.99803,-7.998 c 4.42201,0 8.00003,3.578 8.00003,7.998 v 8 a 7.9940258,7.994 0 0 1 -8.00003,7.998 z"
         fill=""
         id="path2878"
         style="fill:#ffffff;stroke-width:1.00001" /><path
         d="m 551.98673,456.012 a 7.9940258,7.994 0 0 1 -7.99803,-7.998 v -8 a 7.9940258,7.994 0 0 1 7.99803,-7.998 7.9940258,7.994 0 0 1 7.99801,7.998 v 8 a 7.9940258,7.994 0 0 1 -7.99801,7.998 z M 695.95719,703.96 h -31.9941 a 7.9940258,7.994 0 0 1 -7.99803,-8 v -31.992 c 0,-4.422 3.578,-8 7.99803,-8 h 31.9941 a 7.9940258,7.994 0 0 1 7.99802,8 v 31.992 c 0,4.422 -3.57801,8 -7.99802,8 z m -23.99607,-15.998 h 15.99604 v -15.996 h -15.99604 z m -39.99214,15.998 h -31.99209 a 7.9940258,7.994 0 0 1 -7.99804,-8 v -31.992 c 0,-4.422 3.57602,-8 7.99804,-8 h 31.99209 c 4.42201,0 8.00003,3.578 8.00003,8 v 31.992 c 0,4.422 -3.57802,8 -8.00003,8 z m -23.99407,-15.998 h 15.99604 V 671.966 H 607.97491 Z M 472.00246,671.966 H 312.03395 a 7.9940258,7.994 0 0 1 -7.99802,-7.998 c 0,-4.422 3.57801,-8 7.99802,-8 h 159.96851 a 7.9940258,7.994 0 0 1 7.99803,8 7.9940258,7.994 0 0 1 -7.99803,7.998 z m -79.98225,31.994 h -79.98425 a 7.9940258,7.994 0 0 1 -7.99804,-8 7.9940258,7.994 0 0 1 7.99804,-7.998 h 79.98425 a 7.9940258,7.994 0 0 1 7.99802,7.998 c 0,4.422 -3.578,8 -7.99802,8 z"
         fill=""
         id="path2880"
         style="fill:#ffffff;stroke-width:1.00001" /></g></g></svg>
